<svg width="44" height="48" viewBox="0 0 44 48" fill="none" xmlns="http://www.w3.org/2000/svg">
<path d="M22 1.5C22.4394 1.5 22.8521 1.56667 23.2451 1.69727C23.6387 1.82812 24.03 2.02852 24.4189 2.31055L40.9014 14.6416L40.9082 14.6455L40.9141 14.6504C41.4044 15.0091 41.7894 15.4626 42.0752 16.0303V16.0312C42.3596 16.6 42.4999 17.1928 42.5 17.8281V42.5146C42.4999 43.6205 42.1232 44.5311 41.3271 45.3271C40.5285 46.1223 39.6131 46.5 38.5 46.5H29V27.2998H15V46.5H5.5C4.38701 46.5 3.47321 46.1224 2.67676 45.3281C1.87805 44.5315 1.50008 43.6204 1.5 42.5146V17.8281C1.50007 17.1939 1.64021 16.6015 1.92578 16.0332L1.92773 16.0312C2.21178 15.4633 2.59525 15.0093 3.08594 14.6504L3.0918 14.6455L3.09863 14.6416L19.5801 2.31055L19.5811 2.31152C19.9701 2.02931 20.3611 1.82817 20.7549 1.69727C21.1479 1.56667 21.5606 1.5 22 1.5Z" fill="#FFF7E2" stroke="#1E1E2F" stroke-width="3"/>
</svg>
