<svg width="29" height="20" viewBox="0 0 29 20" fill="none" xmlns="http://www.w3.org/2000/svg">
<path d="M19.7037 2.33068C21.5937 2.25771 23.3021 2.59326 24.5938 3.58713C24.5977 3.59006 24.602 3.59252 24.6059 3.59546C24.6081 3.59717 24.6107 3.59836 24.6129 3.60007L24.6119 3.60109C25.9159 4.59008 26.5771 5.99812 26.6409 7.64978C26.682 8.71576 26.4591 9.72722 25.9244 10.6299L25.9233 10.6289C25.4075 11.5211 24.6536 12.2043 23.7249 12.689L23.7153 12.6942L23.7057 12.6985C22.8066 13.1514 21.7832 13.3821 20.6795 13.4439L20.8064 16.7276L19.794 17.1087C19.5154 17.2136 19.1923 17.2701 18.9231 17.3075C18.6179 17.3619 18.3082 17.3958 17.9946 17.4079C17.3245 17.4338 16.4633 17.3629 15.7843 16.8346L15.7682 16.8226L15.7521 16.8095C15.4939 16.5972 15.3062 16.3487 15.1691 16.0873L15.2035 16.9792L14.1474 17.3406C13.8825 17.4313 13.5783 17.4861 13.3003 17.5248C12.9951 17.5792 12.6855 17.6131 12.3719 17.6252C11.7016 17.6511 10.8397 17.5804 10.1606 17.052L10.1445 17.0399L10.1293 17.0268C9.39741 16.425 9.22436 15.5352 9.19872 14.8716L9.12481 12.959L7.90892 13.006L8.07175 17.2196L7.06032 17.6008C6.78175 17.7057 6.45867 17.7621 6.18942 17.7996C5.88419 17.854 5.5746 17.8879 5.26096 17.9C4.59074 17.9259 3.72876 17.8552 3.04968 17.3267L3.03455 17.3146L3.01841 17.3016C2.28658 16.6998 2.11346 15.8099 2.08782 15.1464L1.64033 3.56621L2.83617 3.27861C2.99877 3.23951 3.21711 3.19537 3.4751 3.14641L3.48576 3.14405C3.81301 3.08433 4.13786 3.04653 4.45782 3.03416C5.11126 3.00896 5.94266 3.07412 6.61062 3.5608C7.43131 4.15885 7.60421 5.12045 7.62999 5.78775L7.70394 7.70136L8.91983 7.65438L8.7504 3.26995L9.97226 2.99796C10.1336 2.96213 10.3476 2.91981 10.6055 2.87088C10.9305 2.80924 11.258 2.77139 11.5873 2.75866C12.2303 2.73383 13.0332 2.80856 13.6912 3.28426L13.6921 3.28325C13.7058 3.29275 13.718 3.30429 13.7314 3.31398C13.7405 3.32083 13.7505 3.32641 13.7595 3.33342L13.7586 3.33443C14.1853 3.65298 14.4356 4.06887 14.5792 4.4911C14.671 4.21279 14.8209 3.94031 15.0479 3.69507C15.3611 3.35662 15.739 3.12995 16.1226 2.98019L16.1226 2.97921C16.6763 2.75334 17.2971 2.60104 17.963 2.50252C18.5861 2.41032 19.168 2.35138 19.7037 2.33068ZM20.4545 8.12828C20.6002 8.09233 20.6553 8.0507 20.6662 8.04094L20.6756 8.03276L20.6784 8.02971C20.6798 8.02433 20.6818 8.01663 20.6834 8.00607C20.6872 7.98082 20.6906 7.93962 20.6883 7.87981C20.6858 7.81416 20.6794 7.76797 20.6731 7.73869C20.6722 7.7348 20.6705 7.73135 20.6697 7.72807C20.6345 7.71302 20.5627 7.69035 20.4371 7.67647L20.4545 8.12828Z" fill="#FFC857" stroke="#1E1E2F" stroke-width="3"/>
</svg>
