<svg width="327" height="55" viewBox="0 0 327 55" fill="none" xmlns="http://www.w3.org/2000/svg">
<mask id="path-1-outside-1_43_763" maskUnits="userSpaceOnUse" x="0" y="0" width="327" height="55" fill="black">
<rect fill="white" width="327" height="55"/>
<path d="M27.008 22.792V30.568H10.952V22.792H27.008ZM21.608 30.568L22.472 24.592C26.456 24.592 29.768 25.072 32.408 26.032C35.048 26.992 37.016 28.336 38.312 30.064C39.656 31.792 40.328 33.88 40.328 36.328C40.328 40.984 38.6 44.44 35.144 46.696C31.688 48.952 26.768 50.08 20.384 50.08C19.232 50.08 17.912 50.032 16.424 49.936C14.984 49.84 13.496 49.672 11.96 49.432C10.472 49.192 9.104 48.856 7.856 48.424C5.36 47.512 4.112 45.904 4.112 43.6V9.184C4.112 8.272 4.376 7.552 4.904 7.024C5.432 6.496 6.128 6.088 6.992 5.8C8.624 5.224 10.592 4.816 12.896 4.576C15.248 4.336 17.648 4.216 20.096 4.216C26.048 4.216 30.632 5.248 33.848 7.312C37.112 9.376 38.744 12.496 38.744 16.672C38.744 18.976 38.072 20.944 36.728 22.576C35.384 24.208 33.416 25.456 30.824 26.32C28.28 27.184 25.184 27.616 21.536 27.616L21.032 22.792C23.336 22.792 25.04 22.336 26.144 21.424C27.248 20.512 27.8 19.216 27.8 17.536C27.8 15.952 27.152 14.728 25.856 13.864C24.608 13 22.712 12.568 20.168 12.568C19.256 12.568 18.296 12.616 17.288 12.712C16.28 12.76 15.44 12.856 14.768 13V41.008C15.584 41.2 16.568 41.344 17.72 41.44C18.92 41.536 20.048 41.584 21.104 41.584C23.504 41.584 25.424 41.128 26.864 40.216C28.352 39.256 29.096 37.816 29.096 35.896C29.096 34.072 28.472 32.728 27.224 31.864C25.976 31 24.104 30.568 21.608 30.568ZM65.9066 14.44H65.4746C64.9946 15.976 64.4186 17.68 63.7466 19.552C63.1226 21.424 62.4746 23.392 61.8026 25.456C61.1306 27.472 60.4826 29.488 59.8586 31.504L58.5626 37.984C58.2746 38.896 57.9866 39.856 57.6986 40.864C57.4586 41.872 57.1946 42.856 56.9066 43.816C56.6186 44.776 56.3546 45.688 56.1146 46.552C55.8746 47.416 55.6346 48.232 55.3946 49C54.8666 49.144 54.2666 49.288 53.5946 49.432C52.9226 49.624 52.1306 49.72 51.2186 49.72C49.2026 49.72 47.6666 49.36 46.6106 48.64C45.5546 47.92 45.0266 46.864 45.0266 45.472C45.0266 44.896 45.0986 44.296 45.2426 43.672C45.4346 43.048 45.6506 42.328 45.8906 41.512C46.3226 39.928 46.9226 37.936 47.6906 35.536C48.5066 33.136 49.3706 30.544 50.2826 27.76C51.2426 24.928 52.2026 22.144 53.1626 19.408C54.1706 16.672 55.0826 14.152 55.8986 11.848C56.7626 9.544 57.4586 7.744 57.9866 6.448C58.6586 6.016 59.7146 5.632 61.1546 5.296C62.6426 4.912 64.1066 4.72 65.5466 4.72C67.6106 4.72 69.4586 5.032 71.0906 5.656C72.7226 6.232 73.7546 7.168 74.1866 8.464C75.0986 11.008 76.0826 13.96 77.1386 17.32C78.2426 20.632 79.3466 24.112 80.4506 27.76C81.5546 31.408 82.6106 34.96 83.6186 38.416C84.6746 41.824 85.5866 44.896 86.3546 47.632C85.8266 48.208 85.0586 48.688 84.0506 49.072C83.0426 49.504 81.8426 49.72 80.4506 49.72C78.4826 49.72 77.0906 49.36 76.2746 48.64C75.4586 47.92 74.8346 46.84 74.4026 45.4L72.0986 37.336L70.8746 31.216C70.2986 29.056 69.6986 26.968 69.0746 24.952C68.4506 22.936 67.8746 21.04 67.3466 19.264C66.8186 17.44 66.3386 15.832 65.9066 14.44ZM53.7386 39.28L57.9866 30.784H74.8346L76.2746 39.28H53.7386ZM92.9167 18.688H103.861V48.568L98.7487 49.144C96.9727 49.144 95.5567 48.616 94.5007 47.56C93.4447 46.504 92.9167 45.088 92.9167 43.312V18.688ZM98.7487 49.144V40.216H121.357C121.693 40.696 121.981 41.32 122.221 42.088C122.461 42.808 122.581 43.624 122.581 44.536C122.581 46.072 122.245 47.224 121.573 47.992C120.901 48.76 119.965 49.144 118.765 49.144H98.7487ZM103.861 32.368H92.9167V5.224C93.3967 5.128 94.1167 5.008 95.0767 4.864C96.0847 4.72 97.0447 4.648 97.9567 4.648C100.069 4.648 101.581 5.008 102.493 5.728C103.405 6.448 103.861 7.816 103.861 9.832V32.368ZM147.891 14.44H147.459C146.979 15.976 146.403 17.68 145.731 19.552C145.107 21.424 144.459 23.392 143.787 25.456C143.115 27.472 142.467 29.488 141.843 31.504L140.547 37.984C140.259 38.896 139.971 39.856 139.683 40.864C139.443 41.872 139.179 42.856 138.891 43.816C138.603 44.776 138.339 45.688 138.099 46.552C137.859 47.416 137.619 48.232 137.379 49C136.851 49.144 136.251 49.288 135.579 49.432C134.907 49.624 134.115 49.72 133.203 49.72C131.187 49.72 129.651 49.36 128.595 48.64C127.539 47.92 127.011 46.864 127.011 45.472C127.011 44.896 127.083 44.296 127.227 43.672C127.419 43.048 127.635 42.328 127.875 41.512C128.307 39.928 128.907 37.936 129.675 35.536C130.491 33.136 131.355 30.544 132.267 27.76C133.227 24.928 134.187 22.144 135.147 19.408C136.155 16.672 137.067 14.152 137.883 11.848C138.747 9.544 139.443 7.744 139.971 6.448C140.643 6.016 141.699 5.632 143.139 5.296C144.627 4.912 146.091 4.72 147.531 4.72C149.595 4.72 151.443 5.032 153.075 5.656C154.707 6.232 155.739 7.168 156.171 8.464C157.083 11.008 158.067 13.96 159.123 17.32C160.227 20.632 161.331 24.112 162.435 27.76C163.539 31.408 164.595 34.96 165.603 38.416C166.659 41.824 167.571 44.896 168.339 47.632C167.811 48.208 167.043 48.688 166.035 49.072C165.027 49.504 163.827 49.72 162.435 49.72C160.467 49.72 159.075 49.36 158.259 48.64C157.443 47.92 156.819 46.84 156.387 45.4L154.083 37.336L152.859 31.216C152.283 29.056 151.683 26.968 151.059 24.952C150.435 22.936 149.859 21.04 149.331 19.264C148.803 17.44 148.323 15.832 147.891 14.44ZM135.723 39.28L139.971 30.784H156.819L158.259 39.28H135.723ZM181.733 14.152L181.661 5.368H203.909C204.197 5.8 204.461 6.4 204.701 7.168C204.941 7.936 205.061 8.752 205.061 9.616C205.061 11.152 204.701 12.304 203.981 13.072C203.309 13.792 202.373 14.152 201.173 14.152H181.733ZM191.885 5.368L191.957 14.152H169.709C169.373 13.72 169.085 13.12 168.845 12.352C168.653 11.584 168.557 10.768 168.557 9.904C168.557 8.32 168.893 7.168 169.565 6.448C170.285 5.728 171.221 5.368 172.373 5.368H191.885ZM181.157 12.208H192.173V48.928C191.693 49.072 190.973 49.192 190.013 49.288C189.053 49.432 188.069 49.504 187.061 49.504C184.901 49.504 183.365 49.12 182.453 48.352C181.589 47.584 181.157 46.24 181.157 44.32V12.208ZM211.675 18.472H222.331V48.568C221.899 48.664 221.227 48.784 220.315 48.928C219.451 49.072 218.515 49.144 217.507 49.144C215.731 49.144 214.315 48.616 213.259 47.56C212.203 46.504 211.675 45.088 211.675 43.312V18.472ZM222.331 35.896H211.675V11.2C211.675 9.376 212.203 7.96 213.259 6.952C214.315 5.896 215.731 5.368 217.507 5.368C218.515 5.368 219.451 5.44 220.315 5.584C221.227 5.728 221.899 5.848 222.331 5.944V35.896ZM217.507 31.072V22.432H239.251C239.539 22.912 239.803 23.512 240.043 24.232C240.283 24.952 240.403 25.744 240.403 26.608C240.403 28.144 240.043 29.272 239.323 29.992C238.651 30.712 237.739 31.072 236.587 31.072H217.507ZM217.507 49.144V40.432H241.627C241.915 40.864 242.179 41.464 242.419 42.232C242.659 43 242.779 43.816 242.779 44.68C242.779 46.216 242.419 47.344 241.699 48.064C241.027 48.784 240.115 49.144 238.963 49.144H217.507ZM217.507 14.008V5.368H241.267C241.603 5.8 241.867 6.376 242.059 7.096C242.299 7.816 242.419 8.608 242.419 9.472C242.419 11.008 242.083 12.16 241.411 12.928C240.739 13.648 239.803 14.008 238.603 14.008H217.507ZM264.082 41.296C266.674 41.296 268.522 40.84 269.626 39.928C270.778 38.968 271.354 37.84 271.354 36.544C271.354 35.344 270.898 34.384 269.986 33.664C269.122 32.896 267.826 32.248 266.098 31.72L262.282 30.496C259.69 29.632 257.386 28.672 255.37 27.616C253.402 26.56 251.866 25.192 250.762 23.512C249.706 21.832 249.178 19.696 249.178 17.104C249.178 13.12 250.69 9.952 253.714 7.6C256.738 5.248 260.938 4.072 266.314 4.072C269.05 4.072 271.474 4.336 273.586 4.864C275.746 5.392 277.426 6.184 278.626 7.24C279.874 8.248 280.498 9.496 280.498 10.984C280.498 12.088 280.234 13.048 279.706 13.864C279.226 14.632 278.602 15.304 277.834 15.88C276.73 15.112 275.266 14.464 273.442 13.936C271.618 13.36 269.602 13.072 267.394 13.072C265.09 13.072 263.362 13.456 262.21 14.224C261.058 14.944 260.482 15.904 260.482 17.104C260.482 18.064 260.866 18.856 261.634 19.48C262.402 20.056 263.554 20.584 265.09 21.064L269.05 22.288C273.418 23.632 276.778 25.432 279.13 27.688C281.482 29.896 282.658 32.872 282.658 36.616C282.658 40.648 281.098 43.936 277.978 46.48C274.858 48.976 270.346 50.224 264.441 50.224C261.514 50.224 258.898 49.912 256.594 49.288C254.29 48.664 252.442 47.752 251.05 46.552C249.706 45.352 249.034 43.96 249.034 42.376C249.034 41.128 249.394 40.072 250.114 39.208C250.882 38.296 251.722 37.624 252.634 37.192C253.93 38.248 255.538 39.208 257.458 40.072C259.426 40.888 261.634 41.296 264.082 41.296ZM298.733 14.152L298.661 5.368H320.909C321.197 5.8 321.461 6.4 321.701 7.168C321.941 7.936 322.061 8.752 322.061 9.616C322.061 11.152 321.701 12.304 320.981 13.072C320.309 13.792 319.373 14.152 318.173 14.152H298.733ZM308.885 5.368L308.957 14.152H286.709C286.373 13.72 286.085 13.12 285.845 12.352C285.653 11.584 285.557 10.768 285.557 9.904C285.557 8.32 285.893 7.168 286.565 6.448C287.285 5.728 288.221 5.368 289.373 5.368H308.885ZM298.157 12.208H309.173V48.928C308.693 49.072 307.973 49.192 307.013 49.288C306.053 49.432 305.069 49.504 304.061 49.504C301.901 49.504 300.365 49.12 299.453 48.352C298.589 47.584 298.157 46.24 298.157 44.32V12.208Z"/>
</mask>
<path d="M27.008 22.792V30.568H10.952V22.792H27.008ZM21.608 30.568L22.472 24.592C26.456 24.592 29.768 25.072 32.408 26.032C35.048 26.992 37.016 28.336 38.312 30.064C39.656 31.792 40.328 33.88 40.328 36.328C40.328 40.984 38.6 44.44 35.144 46.696C31.688 48.952 26.768 50.08 20.384 50.08C19.232 50.08 17.912 50.032 16.424 49.936C14.984 49.84 13.496 49.672 11.96 49.432C10.472 49.192 9.104 48.856 7.856 48.424C5.36 47.512 4.112 45.904 4.112 43.6V9.184C4.112 8.272 4.376 7.552 4.904 7.024C5.432 6.496 6.128 6.088 6.992 5.8C8.624 5.224 10.592 4.816 12.896 4.576C15.248 4.336 17.648 4.216 20.096 4.216C26.048 4.216 30.632 5.248 33.848 7.312C37.112 9.376 38.744 12.496 38.744 16.672C38.744 18.976 38.072 20.944 36.728 22.576C35.384 24.208 33.416 25.456 30.824 26.32C28.28 27.184 25.184 27.616 21.536 27.616L21.032 22.792C23.336 22.792 25.04 22.336 26.144 21.424C27.248 20.512 27.8 19.216 27.8 17.536C27.8 15.952 27.152 14.728 25.856 13.864C24.608 13 22.712 12.568 20.168 12.568C19.256 12.568 18.296 12.616 17.288 12.712C16.28 12.76 15.44 12.856 14.768 13V41.008C15.584 41.2 16.568 41.344 17.72 41.44C18.92 41.536 20.048 41.584 21.104 41.584C23.504 41.584 25.424 41.128 26.864 40.216C28.352 39.256 29.096 37.816 29.096 35.896C29.096 34.072 28.472 32.728 27.224 31.864C25.976 31 24.104 30.568 21.608 30.568ZM65.9066 14.44H65.4746C64.9946 15.976 64.4186 17.68 63.7466 19.552C63.1226 21.424 62.4746 23.392 61.8026 25.456C61.1306 27.472 60.4826 29.488 59.8586 31.504L58.5626 37.984C58.2746 38.896 57.9866 39.856 57.6986 40.864C57.4586 41.872 57.1946 42.856 56.9066 43.816C56.6186 44.776 56.3546 45.688 56.1146 46.552C55.8746 47.416 55.6346 48.232 55.3946 49C54.8666 49.144 54.2666 49.288 53.5946 49.432C52.9226 49.624 52.1306 49.72 51.2186 49.72C49.2026 49.72 47.6666 49.36 46.6106 48.64C45.5546 47.92 45.0266 46.864 45.0266 45.472C45.0266 44.896 45.0986 44.296 45.2426 43.672C45.4346 43.048 45.6506 42.328 45.8906 41.512C46.3226 39.928 46.9226 37.936 47.6906 35.536C48.5066 33.136 49.3706 30.544 50.2826 27.76C51.2426 24.928 52.2026 22.144 53.1626 19.408C54.1706 16.672 55.0826 14.152 55.8986 11.848C56.7626 9.544 57.4586 7.744 57.9866 6.448C58.6586 6.016 59.7146 5.632 61.1546 5.296C62.6426 4.912 64.1066 4.72 65.5466 4.72C67.6106 4.72 69.4586 5.032 71.0906 5.656C72.7226 6.232 73.7546 7.168 74.1866 8.464C75.0986 11.008 76.0826 13.96 77.1386 17.32C78.2426 20.632 79.3466 24.112 80.4506 27.76C81.5546 31.408 82.6106 34.96 83.6186 38.416C84.6746 41.824 85.5866 44.896 86.3546 47.632C85.8266 48.208 85.0586 48.688 84.0506 49.072C83.0426 49.504 81.8426 49.72 80.4506 49.72C78.4826 49.72 77.0906 49.36 76.2746 48.64C75.4586 47.92 74.8346 46.84 74.4026 45.4L72.0986 37.336L70.8746 31.216C70.2986 29.056 69.6986 26.968 69.0746 24.952C68.4506 22.936 67.8746 21.04 67.3466 19.264C66.8186 17.44 66.3386 15.832 65.9066 14.44ZM53.7386 39.28L57.9866 30.784H74.8346L76.2746 39.28H53.7386ZM92.9167 18.688H103.861V48.568L98.7487 49.144C96.9727 49.144 95.5567 48.616 94.5007 47.56C93.4447 46.504 92.9167 45.088 92.9167 43.312V18.688ZM98.7487 49.144V40.216H121.357C121.693 40.696 121.981 41.32 122.221 42.088C122.461 42.808 122.581 43.624 122.581 44.536C122.581 46.072 122.245 47.224 121.573 47.992C120.901 48.76 119.965 49.144 118.765 49.144H98.7487ZM103.861 32.368H92.9167V5.224C93.3967 5.128 94.1167 5.008 95.0767 4.864C96.0847 4.72 97.0447 4.648 97.9567 4.648C100.069 4.648 101.581 5.008 102.493 5.728C103.405 6.448 103.861 7.816 103.861 9.832V32.368ZM147.891 14.44H147.459C146.979 15.976 146.403 17.68 145.731 19.552C145.107 21.424 144.459 23.392 143.787 25.456C143.115 27.472 142.467 29.488 141.843 31.504L140.547 37.984C140.259 38.896 139.971 39.856 139.683 40.864C139.443 41.872 139.179 42.856 138.891 43.816C138.603 44.776 138.339 45.688 138.099 46.552C137.859 47.416 137.619 48.232 137.379 49C136.851 49.144 136.251 49.288 135.579 49.432C134.907 49.624 134.115 49.72 133.203 49.72C131.187 49.72 129.651 49.36 128.595 48.64C127.539 47.92 127.011 46.864 127.011 45.472C127.011 44.896 127.083 44.296 127.227 43.672C127.419 43.048 127.635 42.328 127.875 41.512C128.307 39.928 128.907 37.936 129.675 35.536C130.491 33.136 131.355 30.544 132.267 27.76C133.227 24.928 134.187 22.144 135.147 19.408C136.155 16.672 137.067 14.152 137.883 11.848C138.747 9.544 139.443 7.744 139.971 6.448C140.643 6.016 141.699 5.632 143.139 5.296C144.627 4.912 146.091 4.72 147.531 4.72C149.595 4.72 151.443 5.032 153.075 5.656C154.707 6.232 155.739 7.168 156.171 8.464C157.083 11.008 158.067 13.96 159.123 17.32C160.227 20.632 161.331 24.112 162.435 27.76C163.539 31.408 164.595 34.96 165.603 38.416C166.659 41.824 167.571 44.896 168.339 47.632C167.811 48.208 167.043 48.688 166.035 49.072C165.027 49.504 163.827 49.72 162.435 49.72C160.467 49.72 159.075 49.36 158.259 48.64C157.443 47.92 156.819 46.84 156.387 45.4L154.083 37.336L152.859 31.216C152.283 29.056 151.683 26.968 151.059 24.952C150.435 22.936 149.859 21.04 149.331 19.264C148.803 17.44 148.323 15.832 147.891 14.44ZM135.723 39.28L139.971 30.784H156.819L158.259 39.28H135.723ZM181.733 14.152L181.661 5.368H203.909C204.197 5.8 204.461 6.4 204.701 7.168C204.941 7.936 205.061 8.752 205.061 9.616C205.061 11.152 204.701 12.304 203.981 13.072C203.309 13.792 202.373 14.152 201.173 14.152H181.733ZM191.885 5.368L191.957 14.152H169.709C169.373 13.72 169.085 13.12 168.845 12.352C168.653 11.584 168.557 10.768 168.557 9.904C168.557 8.32 168.893 7.168 169.565 6.448C170.285 5.728 171.221 5.368 172.373 5.368H191.885ZM181.157 12.208H192.173V48.928C191.693 49.072 190.973 49.192 190.013 49.288C189.053 49.432 188.069 49.504 187.061 49.504C184.901 49.504 183.365 49.12 182.453 48.352C181.589 47.584 181.157 46.24 181.157 44.32V12.208ZM211.675 18.472H222.331V48.568C221.899 48.664 221.227 48.784 220.315 48.928C219.451 49.072 218.515 49.144 217.507 49.144C215.731 49.144 214.315 48.616 213.259 47.56C212.203 46.504 211.675 45.088 211.675 43.312V18.472ZM222.331 35.896H211.675V11.2C211.675 9.376 212.203 7.96 213.259 6.952C214.315 5.896 215.731 5.368 217.507 5.368C218.515 5.368 219.451 5.44 220.315 5.584C221.227 5.728 221.899 5.848 222.331 5.944V35.896ZM217.507 31.072V22.432H239.251C239.539 22.912 239.803 23.512 240.043 24.232C240.283 24.952 240.403 25.744 240.403 26.608C240.403 28.144 240.043 29.272 239.323 29.992C238.651 30.712 237.739 31.072 236.587 31.072H217.507ZM217.507 49.144V40.432H241.627C241.915 40.864 242.179 41.464 242.419 42.232C242.659 43 242.779 43.816 242.779 44.68C242.779 46.216 242.419 47.344 241.699 48.064C241.027 48.784 240.115 49.144 238.963 49.144H217.507ZM217.507 14.008V5.368H241.267C241.603 5.8 241.867 6.376 242.059 7.096C242.299 7.816 242.419 8.608 242.419 9.472C242.419 11.008 242.083 12.16 241.411 12.928C240.739 13.648 239.803 14.008 238.603 14.008H217.507ZM264.082 41.296C266.674 41.296 268.522 40.84 269.626 39.928C270.778 38.968 271.354 37.84 271.354 36.544C271.354 35.344 270.898 34.384 269.986 33.664C269.122 32.896 267.826 32.248 266.098 31.72L262.282 30.496C259.69 29.632 257.386 28.672 255.37 27.616C253.402 26.56 251.866 25.192 250.762 23.512C249.706 21.832 249.178 19.696 249.178 17.104C249.178 13.12 250.69 9.952 253.714 7.6C256.738 5.248 260.938 4.072 266.314 4.072C269.05 4.072 271.474 4.336 273.586 4.864C275.746 5.392 277.426 6.184 278.626 7.24C279.874 8.248 280.498 9.496 280.498 10.984C280.498 12.088 280.234 13.048 279.706 13.864C279.226 14.632 278.602 15.304 277.834 15.88C276.73 15.112 275.266 14.464 273.442 13.936C271.618 13.36 269.602 13.072 267.394 13.072C265.09 13.072 263.362 13.456 262.21 14.224C261.058 14.944 260.482 15.904 260.482 17.104C260.482 18.064 260.866 18.856 261.634 19.48C262.402 20.056 263.554 20.584 265.09 21.064L269.05 22.288C273.418 23.632 276.778 25.432 279.13 27.688C281.482 29.896 282.658 32.872 282.658 36.616C282.658 40.648 281.098 43.936 277.978 46.48C274.858 48.976 270.346 50.224 264.441 50.224C261.514 50.224 258.898 49.912 256.594 49.288C254.29 48.664 252.442 47.752 251.05 46.552C249.706 45.352 249.034 43.96 249.034 42.376C249.034 41.128 249.394 40.072 250.114 39.208C250.882 38.296 251.722 37.624 252.634 37.192C253.93 38.248 255.538 39.208 257.458 40.072C259.426 40.888 261.634 41.296 264.082 41.296ZM298.733 14.152L298.661 5.368H320.909C321.197 5.8 321.461 6.4 321.701 7.168C321.941 7.936 322.061 8.752 322.061 9.616C322.061 11.152 321.701 12.304 320.981 13.072C320.309 13.792 319.373 14.152 318.173 14.152H298.733ZM308.885 5.368L308.957 14.152H286.709C286.373 13.72 286.085 13.12 285.845 12.352C285.653 11.584 285.557 10.768 285.557 9.904C285.557 8.32 285.893 7.168 286.565 6.448C287.285 5.728 288.221 5.368 289.373 5.368H308.885ZM298.157 12.208H309.173V48.928C308.693 49.072 307.973 49.192 307.013 49.288C306.053 49.432 305.069 49.504 304.061 49.504C301.901 49.504 300.365 49.12 299.453 48.352C298.589 47.584 298.157 46.24 298.157 44.32V12.208Z" fill="#FFF7E2"/>
<path d="M27.008 22.792H31.008V18.792H27.008V22.792ZM27.008 30.568V34.568H31.008V30.568H27.008ZM10.952 30.568H6.952V34.568H10.952V30.568ZM10.952 22.792V18.792H6.952V22.792H10.952ZM21.608 30.568L17.6492 29.9956L16.9881 34.568H21.608V30.568ZM22.472 24.592V20.592H19.0087L18.5132 24.0196L22.472 24.592ZM32.408 26.032L31.041 29.7912L31.041 29.7912L32.408 26.032ZM38.312 30.064L35.112 32.464L35.133 32.4921L35.1546 32.5198L38.312 30.064ZM35.144 46.696L37.3305 50.0455L37.3305 50.0455L35.144 46.696ZM16.424 49.936L16.1579 53.9271L16.1665 53.9277L16.424 49.936ZM11.96 49.432L11.3231 53.381L11.3328 53.3825L11.3425 53.384L11.96 49.432ZM7.856 48.424L6.48323 52.1811L6.5153 52.1928L6.54756 52.2039L7.856 48.424ZM4.904 7.024L7.73242 9.85243L7.73243 9.85242L4.904 7.024ZM6.992 5.8L8.25691 9.59473L8.2902 9.58364L8.32328 9.57196L6.992 5.8ZM12.896 4.576L12.4899 0.596651L12.4816 0.597523L12.896 4.576ZM33.848 7.312L31.6875 10.6783L31.6988 10.6856L31.7102 10.6928L33.848 7.312ZM36.728 22.576L39.8157 25.1188L39.8157 25.1188L36.728 22.576ZM30.824 26.32L29.5591 22.5253L29.5484 22.5288L29.5377 22.5325L30.824 26.32ZM21.536 27.616L17.5577 28.0316L17.9321 31.616H21.536V27.616ZM21.032 22.792V18.792H16.5923L17.0537 23.2076L21.032 22.792ZM25.856 13.864L23.5792 17.1528L23.608 17.1727L23.6372 17.1922L25.856 13.864ZM17.288 12.712L17.4783 16.7075L17.5729 16.703L17.6672 16.694L17.288 12.712ZM14.768 13L13.9299 9.08879L10.768 9.76634V13H14.768ZM14.768 41.008H10.768V44.1761L13.8518 44.9017L14.768 41.008ZM17.72 41.44L17.3878 45.4262L17.401 45.4273L17.72 41.44ZM26.864 40.216L29.0042 43.5953L29.0184 43.5863L29.0325 43.5772L26.864 40.216ZM27.224 31.864L24.9472 35.1528L24.9472 35.1528L27.224 31.864ZM27.008 22.792H23.008V30.568H27.008H31.008V22.792H27.008ZM27.008 30.568V26.568H10.952V30.568V34.568H27.008V30.568ZM10.952 30.568H14.952V22.792H10.952H6.952V30.568H10.952ZM10.952 22.792V26.792H27.008V22.792V18.792H10.952V22.792ZM21.608 30.568L25.5668 31.1404L26.4308 25.1644L22.472 24.592L18.5132 24.0196L17.6492 29.9956L21.608 30.568ZM22.472 24.592V28.592C26.169 28.592 28.9808 29.042 31.041 29.7912L32.408 26.032L33.775 22.2728C30.5552 21.102 26.743 20.592 22.472 20.592V24.592ZM32.408 26.032L31.041 29.7912C33.1674 30.5644 34.4033 31.5191 35.112 32.464L38.312 30.064L41.512 27.664C39.6287 25.1529 36.9286 23.4196 33.775 22.2728L32.408 26.032ZM38.312 30.064L35.1546 32.5198C35.888 33.4628 36.328 34.6585 36.328 36.328H40.328H44.328C44.328 33.1015 43.424 30.1212 41.4694 27.6082L38.312 30.064ZM40.328 36.328H36.328C36.328 39.8364 35.1216 41.9338 32.9575 43.3465L35.144 46.696L37.3305 50.0455C42.0784 46.9462 44.328 42.1316 44.328 36.328H40.328ZM35.144 46.696L32.9575 43.3465C30.4169 45.0049 26.3842 46.08 20.384 46.08V50.08V54.08C27.1518 54.08 32.9591 52.8991 37.3305 50.0455L35.144 46.696ZM20.384 50.08V46.08C19.3386 46.08 18.1072 46.0363 16.6815 45.9443L16.424 49.936L16.1665 53.9277C17.7168 54.0277 19.1254 54.08 20.384 54.08V50.08ZM16.424 49.936L16.6901 45.9449C15.3763 45.8573 14.0058 45.7031 12.5775 45.48L11.96 49.432L11.3425 53.384C12.9862 53.6409 14.5917 53.8227 16.1579 53.9271L16.424 49.936ZM11.96 49.432L12.5969 45.483C11.3059 45.2748 10.1659 44.9907 9.16444 44.6441L7.856 48.424L6.54756 52.2039C8.04213 52.7213 9.63806 53.1092 11.3231 53.381L11.96 49.432ZM7.856 48.424L9.22877 44.6669C8.47547 44.3917 8.24964 44.1352 8.20795 44.0815C8.18633 44.0536 8.17136 44.0275 8.15678 43.9818C8.14045 43.9306 8.112 43.8132 8.112 43.6H4.112H0.112C0.112 45.5169 0.648567 47.3895 1.88805 48.9865C3.09436 50.5408 4.74053 51.5443 6.48323 52.1811L7.856 48.424ZM4.112 43.6H8.112V9.184H4.112H0.112V43.6H4.112ZM4.112 9.184H8.112C8.112 9.11108 8.12262 9.18126 8.06551 9.33702C8.00309 9.50724 7.89044 9.69441 7.73242 9.85243L4.904 7.024L2.07558 4.19557C0.637462 5.63368 0.112 7.46107 0.112 9.184H4.112ZM4.904 7.024L7.73243 9.85242C7.73531 9.84955 7.85459 9.72884 8.25691 9.59473L6.992 5.8L5.72709 2.00526C4.40141 2.44716 3.1287 3.14245 2.07557 4.19558L4.904 7.024ZM6.992 5.8L8.32328 9.57196C9.57841 9.12897 11.221 8.77212 13.3104 8.55447L12.896 4.576L12.4816 0.597523C9.96297 0.859878 7.66959 1.31902 5.66072 2.02804L6.992 5.8ZM12.896 4.576L13.3021 8.55533C15.5145 8.32958 17.7788 8.216 20.096 8.216V4.216V0.215997C17.5172 0.215997 14.9815 0.342418 12.4899 0.59666L12.896 4.576ZM20.096 4.216V8.216C25.6753 8.216 29.3821 9.19876 31.6875 10.6783L33.848 7.312L36.0085 3.94565C31.8819 1.29723 26.4207 0.215997 20.096 0.215997V4.216ZM33.848 7.312L31.7102 10.6928C33.7062 11.955 34.744 13.7341 34.744 16.672H38.744H42.744C42.744 11.2579 40.5178 6.797 35.9858 3.93122L33.848 7.312ZM38.744 16.672H34.744C34.744 18.1374 34.3402 19.1833 33.6403 20.0332L36.728 22.576L39.8157 25.1188C41.8038 22.7047 42.744 19.8146 42.744 16.672H38.744ZM36.728 22.576L33.6403 20.0332C32.8952 20.9379 31.6432 21.8306 29.5591 22.5253L30.824 26.32L32.0889 30.1147C35.1888 29.0814 37.8728 27.4781 39.8157 25.1188L36.728 22.576ZM30.824 26.32L29.5377 22.5325C27.5265 23.2155 24.8922 23.616 21.536 23.616V27.616V31.616C25.4758 31.616 29.0335 31.1525 32.1103 30.1075L30.824 26.32ZM21.536 27.616L25.5143 27.2004L25.0103 22.3764L21.032 22.792L17.0537 23.2076L17.5577 28.0316L21.536 27.616ZM21.032 22.792V26.792C23.7365 26.792 26.5477 26.2788 28.6915 24.5078L26.144 21.424L23.5965 18.3402C23.5323 18.3932 22.9355 18.792 21.032 18.792V22.792ZM26.144 21.424L28.6915 24.5078C30.8791 22.7007 31.8 20.1792 31.8 17.536H27.8H23.8C23.8 17.9392 23.7343 18.134 23.7059 18.2006C23.685 18.2497 23.6636 18.2847 23.5965 18.3402L26.144 21.424ZM27.8 17.536H31.8C31.8 14.6419 30.5061 12.1567 28.0748 10.5358L25.856 13.864L23.6372 17.1922C23.7258 17.2513 23.7664 17.2917 23.7789 17.3052C23.79 17.3171 23.7859 17.3149 23.7788 17.3015C23.7719 17.2884 23.7749 17.2886 23.7809 17.3149C23.7875 17.3435 23.8 17.4131 23.8 17.536H27.8ZM25.856 13.864L28.1328 10.5752C25.9001 9.02946 23.0306 8.568 20.168 8.568V12.568V16.568C22.3934 16.568 23.3159 16.9705 23.5792 17.1528L25.856 13.864ZM20.168 12.568V8.568C19.1165 8.568 18.0293 8.6233 16.9088 8.73002L17.288 12.712L17.6672 16.694C18.5627 16.6087 19.3955 16.568 20.168 16.568V12.568ZM17.288 12.712L17.0977 8.71653C15.9628 8.77057 14.8888 8.88331 13.9299 9.08879L14.768 13L15.6061 16.9112C15.9912 16.8287 16.5972 16.7494 17.4783 16.7075L17.288 12.712ZM14.768 13H10.768V41.008H14.768H18.768V13H14.768ZM14.768 41.008L13.8518 44.9017C14.9165 45.1522 16.1071 45.3195 17.3878 45.4262L17.72 41.44L18.0522 37.4538C17.0289 37.3685 16.2515 37.2478 15.6842 37.1143L14.768 41.008ZM17.72 41.44L17.401 45.4273C18.6928 45.5306 19.9281 45.584 21.104 45.584V41.584V37.584C20.1679 37.584 19.1472 37.5414 18.039 37.4527L17.72 41.44ZM21.104 41.584V45.584C23.9661 45.584 26.7132 45.0462 29.0042 43.5953L26.864 40.216L24.7238 36.8367C24.1348 37.2098 23.0419 37.584 21.104 37.584V41.584ZM26.864 40.216L29.0325 43.5772C31.7724 41.8095 33.096 39.0383 33.096 35.896H29.096H25.096C25.096 36.3346 25.0135 36.5234 24.9843 36.5799C24.9621 36.6228 24.9084 36.7175 24.6955 36.8548L26.864 40.216ZM29.096 35.896H33.096C33.096 33.0613 32.0545 30.3431 29.5008 28.5752L27.224 31.864L24.9472 35.1528C24.9855 35.1793 24.995 35.1923 24.992 35.1887C24.9886 35.1847 24.9914 35.1859 25 35.2044C25.0171 35.2413 25.096 35.4346 25.096 35.896H29.096ZM27.224 31.864L29.5008 28.5752C27.2776 27.0361 24.4419 26.568 21.608 26.568V30.568V34.568C23.7661 34.568 24.6744 34.9639 24.9472 35.1528L27.224 31.864ZM65.9066 14.44L69.7268 13.2544L68.8534 10.44H65.9066V14.44ZM65.4746 14.44V10.44H62.5338L61.6566 13.2469L65.4746 14.44ZM63.7466 19.552L59.9818 18.2005L59.9663 18.2436L59.9518 18.2871L63.7466 19.552ZM61.8026 25.456L65.5973 26.7209L65.6017 26.7076L65.606 26.6943L61.8026 25.456ZM59.8586 31.504L56.0374 30.3213L55.9766 30.5178L55.9362 30.7195L59.8586 31.504ZM58.5626 37.984L62.3769 39.1885L62.4423 38.9814L62.4849 38.7685L58.5626 37.984ZM57.6986 40.864L53.8525 39.7651L53.828 39.8508L53.8073 39.9375L57.6986 40.864ZM56.1146 46.552L52.2605 45.4814L52.2605 45.4814L56.1146 46.552ZM55.3946 49L56.447 52.8591L58.5594 52.283L59.2125 50.1931L55.3946 49ZM53.5946 49.432L52.7564 45.5208L52.625 45.549L52.4957 45.5859L53.5946 49.432ZM46.6106 48.64L44.3572 51.9449L44.3572 51.9449L46.6106 48.64ZM45.2426 43.672L41.4194 42.4957L41.3773 42.6328L41.345 42.7726L45.2426 43.672ZM45.8906 41.512L49.728 42.6407L49.7392 42.6027L49.7496 42.5645L45.8906 41.512ZM47.6906 35.536L43.9035 34.2484L43.8919 34.2825L43.8809 34.3169L47.6906 35.536ZM50.2826 27.76L46.4943 26.4758L46.4877 26.4953L46.4813 26.5148L50.2826 27.76ZM53.1626 19.408L49.4092 18.0252L49.3984 18.0543L49.3882 18.0836L53.1626 19.408ZM55.8986 11.848L52.1532 10.4435L52.1403 10.4779L52.1281 10.5126L55.8986 11.848ZM57.9866 6.448L55.8235 3.08329L54.7595 3.76733L54.2822 4.93881L57.9866 6.448ZM61.1546 5.296L62.0635 9.19136L62.1089 9.18076L62.1541 9.16911L61.1546 5.296ZM71.0906 5.656L69.662 9.39221L69.7104 9.41071L69.7593 9.42796L71.0906 5.656ZM74.1866 8.464L70.3918 9.72891L70.406 9.77154L70.4212 9.81385L74.1866 8.464ZM77.1386 17.32L73.3226 18.5193L73.3329 18.5522L73.3438 18.5849L77.1386 17.32ZM83.6186 38.416L79.7786 39.536L79.7879 39.568L79.7978 39.5999L83.6186 38.416ZM86.3546 47.632L89.3032 50.3349L90.8073 48.6941L90.2057 46.551L86.3546 47.632ZM84.0506 49.072L82.6266 45.334L82.5501 45.3632L82.4749 45.3954L84.0506 49.072ZM74.4026 45.4L70.5565 46.4989L70.5637 46.5242L70.5713 46.5494L74.4026 45.4ZM72.0986 37.336L68.1762 38.1205L68.208 38.2792L68.2525 38.4349L72.0986 37.336ZM70.8746 31.216L74.7969 30.4315L74.7721 30.3075L74.7395 30.1853L70.8746 31.216ZM69.0746 24.952L72.8957 23.7693L72.8957 23.7693L69.0746 24.952ZM67.3466 19.264L63.5043 20.3762L63.5083 20.3901L63.5124 20.4039L67.3466 19.264ZM53.7386 39.28L50.1609 37.4911L47.2664 43.28H53.7386V39.28ZM57.9866 30.784V26.784H55.5144L54.4089 28.9951L57.9866 30.784ZM74.8346 30.784L78.7783 30.1156L78.2136 26.784H74.8346V30.784ZM76.2746 39.28V43.28H81.0096L80.2183 38.6116L76.2746 39.28ZM65.9066 14.44V10.44H65.4746V14.44V18.44H65.9066V14.44ZM65.4746 14.44L61.6566 13.2469C61.1966 14.7191 60.6392 16.3693 59.9818 18.2005L63.7466 19.552L67.5113 20.9035C68.198 18.9907 68.7926 17.2329 69.2925 15.6331L65.4746 14.44ZM63.7466 19.552L59.9518 18.2871C59.3246 20.1688 58.6737 22.1457 57.9991 24.2177L61.8026 25.456L65.606 26.6943C66.2754 24.6383 66.9205 22.6792 67.5413 20.8169L63.7466 19.552ZM61.8026 25.456L58.0078 24.1911C57.3268 26.2342 56.67 28.2776 56.0374 30.3213L59.8586 31.504L63.6797 32.6867C64.2951 30.6984 64.9343 28.7098 65.5973 26.7209L61.8026 25.456ZM59.8586 31.504L55.9362 30.7195L54.6402 37.1995L58.5626 37.984L62.4849 38.7685L63.7809 32.2885L59.8586 31.504ZM58.5626 37.984L54.7482 36.7795C54.4482 37.7297 54.1496 38.7251 53.8525 39.7651L57.6986 40.864L61.5447 41.9629C61.8235 40.9869 62.101 40.0623 62.3769 39.1885L58.5626 37.984ZM57.6986 40.864L53.8073 39.9375C53.5846 40.8732 53.3404 41.7828 53.0753 42.6666L56.9066 43.816L60.7379 44.9654C61.0487 43.9292 61.3326 42.8708 61.5898 41.7905L57.6986 40.864ZM56.9066 43.816L53.0753 42.6666C52.7803 43.6498 52.5086 44.5882 52.2605 45.4814L56.1146 46.552L59.9686 47.6226C60.2005 46.7878 60.4568 45.9022 60.7379 44.9654L56.9066 43.816ZM56.1146 46.552L52.2605 45.4814C52.0306 46.309 51.8026 47.0838 51.5766 47.8069L55.3946 49L59.2125 50.1931C59.4665 49.3802 59.7185 48.523 59.9686 47.6226L56.1146 46.552ZM55.3946 49L54.3421 45.1409C53.9002 45.2615 53.3738 45.3885 52.7564 45.5208L53.5946 49.432L54.4327 53.3432C55.1594 53.1875 55.8329 53.0265 56.447 52.8591L55.3946 49ZM53.5946 49.432L52.4957 45.5859C52.2706 45.6502 51.8653 45.72 51.2186 45.72V49.72V53.72C52.3959 53.72 53.5745 53.5978 54.6934 53.2781L53.5946 49.432ZM51.2186 49.72V45.72C49.5787 45.72 48.9734 45.4097 48.8639 45.3351L46.6106 48.64L44.3572 51.9449C46.3597 53.3103 48.8265 53.72 51.2186 53.72V49.72ZM46.6106 48.64L48.8639 45.3351C48.8493 45.3251 48.8685 45.3361 48.9027 45.3745C48.9381 45.4142 48.973 45.4646 49.0003 45.5191C49.0131 45.5448 49.022 45.5669 49.0278 45.5837C49.0336 45.6004 49.0356 45.6097 49.0356 45.6096C49.0356 45.6096 49.0266 45.5675 49.0266 45.472H45.0266H41.0266C41.0266 48.0478 42.0985 50.4048 44.3572 51.9449L46.6106 48.64ZM45.0266 45.472H49.0266C49.0266 45.2302 49.0567 44.9328 49.1401 44.5714L45.2426 43.672L41.345 42.7726C41.1404 43.6592 41.0266 44.5618 41.0266 45.472H45.0266ZM45.2426 43.672L49.0657 44.8483C49.2638 44.2046 49.4847 43.4681 49.728 42.6407L45.8906 41.512L42.0531 40.3833C41.8165 41.1879 41.6054 41.8914 41.4194 42.4957L45.2426 43.672ZM45.8906 41.512L49.7496 42.5645C50.1606 41.0575 50.7417 39.1257 51.5003 36.7551L47.6906 35.536L43.8809 34.3169C43.1034 36.7463 42.4845 38.7985 42.0315 40.4595L45.8906 41.512ZM47.6906 35.536L51.4777 36.8236C52.2991 34.4075 53.1679 31.8013 54.0838 29.0052L50.2826 27.76L46.4813 26.5148C45.5733 29.2867 44.714 31.8645 43.9035 34.2484L47.6906 35.536ZM50.2826 27.76L54.0708 29.0442C55.0264 26.2252 55.9818 23.4546 56.937 20.7323L53.1626 19.408L49.3882 18.0836C48.4233 20.8334 47.4587 23.6308 46.4943 26.4758L50.2826 27.76ZM53.1626 19.408L56.9159 20.7908C57.9287 18.0419 58.8465 15.5059 59.6691 13.1834L55.8986 11.848L52.1281 10.5126C51.3186 12.7981 50.4124 15.3021 49.4092 18.0252L53.1626 19.408ZM55.8986 11.848L59.6439 13.2525C60.503 10.9616 61.1838 9.20202 61.6909 7.95719L57.9866 6.448L54.2822 4.93881C53.7333 6.28598 53.0222 8.12637 52.1532 10.4435L55.8986 11.848ZM57.9866 6.448L60.1496 9.81271C60.1466 9.81465 60.1822 9.79173 60.2706 9.74999C60.3578 9.70879 60.4818 9.65616 60.6495 9.59517C60.9895 9.47154 61.4534 9.33372 62.0635 9.19136L61.1546 5.296L60.2456 1.40063C58.6722 1.76777 57.0796 2.2758 55.8235 3.08329L57.9866 6.448ZM61.1546 5.296L62.1541 9.16911C63.3374 8.86373 64.4656 8.72 65.5466 8.72V4.72V0.719999C63.7476 0.719999 61.9477 0.960266 60.1551 1.42289L61.1546 5.296ZM65.5466 4.72V8.72C67.209 8.72 68.5606 8.97108 69.662 9.39221L71.0906 5.656L72.5191 1.91979C70.3565 1.09291 68.0122 0.719999 65.5466 0.719999V4.72ZM71.0906 5.656L69.7593 9.42796C70.1916 9.58053 70.3619 9.71716 70.4013 9.75287C70.4195 9.76939 70.4161 9.76965 70.4054 9.75334C70.3944 9.73665 70.3905 9.72491 70.3918 9.72891L74.1866 8.464L77.9813 7.19909C77.0574 4.42736 74.8771 2.7506 72.4218 1.88404L71.0906 5.656ZM74.1866 8.464L70.4212 9.81385C71.3109 12.2957 72.278 15.1956 73.3226 18.5193L77.1386 17.32L80.9545 16.1207C79.8871 12.7244 78.8862 9.72025 77.9519 7.11415L74.1866 8.464ZM77.1386 17.32L73.3438 18.5849C74.4351 21.8586 75.5278 25.303 76.622 28.9186L80.4506 27.76L84.2791 26.6014C83.1653 22.921 82.0501 19.4054 80.9333 16.0551L77.1386 17.32ZM80.4506 27.76L76.622 28.9186C77.7224 32.5545 78.7745 36.0936 79.7786 39.536L83.6186 38.416L87.4586 37.296C86.4466 33.8264 85.3868 30.2615 84.2791 26.6014L80.4506 27.76ZM83.6186 38.416L79.7978 39.5999C80.8457 42.9819 81.7471 46.0188 82.5034 48.713L86.3546 47.632L90.2057 46.551C89.426 43.7732 88.5034 40.6661 87.4393 37.2321L83.6186 38.416ZM86.3546 47.632L83.406 44.9291C83.4275 44.9056 83.2618 45.092 82.6266 45.334L84.0506 49.072L85.4745 52.81C86.8553 52.284 88.2256 51.5104 89.3032 50.3349L86.3546 47.632ZM84.0506 49.072L82.4749 45.3954C82.0794 45.5649 81.4413 45.72 80.4506 45.72V49.72V53.72C82.2438 53.72 84.0057 53.4431 85.6262 52.7486L84.0506 49.072ZM80.4506 49.72V45.72C79.6897 45.72 79.2059 45.6482 78.9321 45.5774C78.6575 45.5064 78.7304 45.4724 78.9211 45.6406L76.2746 48.64L73.6281 51.6394C75.5711 53.3538 78.2134 53.72 80.4506 53.72V49.72ZM76.2746 48.64L78.9211 45.6406C78.8398 45.5689 78.53 45.2377 78.2339 44.2506L74.4026 45.4L70.5713 46.5494C71.1391 48.4423 72.0774 50.2711 73.6281 51.6394L76.2746 48.64ZM74.4026 45.4L78.2487 44.3011L75.9447 36.2371L72.0986 37.336L68.2525 38.4349L70.5565 46.4989L74.4026 45.4ZM72.0986 37.336L76.0209 36.5515L74.7969 30.4315L70.8746 31.216L66.9522 32.0005L68.1762 38.1205L72.0986 37.336ZM70.8746 31.216L74.7395 30.1853C74.1507 27.9773 73.5362 25.8385 72.8957 23.7693L69.0746 24.952L65.2534 26.1347C65.8609 28.0975 66.4464 30.1346 67.0096 32.2466L70.8746 31.216ZM69.0746 24.952L72.8957 23.7693C72.2755 21.7656 71.7039 19.884 71.1807 18.1241L67.3466 19.264L63.5124 20.4039C64.0452 22.196 64.6256 24.1064 65.2534 26.1347L69.0746 24.952ZM67.3466 19.264L71.1888 18.1518C70.6557 16.3101 70.1682 14.6768 69.7268 13.2544L65.9066 14.44L62.0863 15.6256C62.5089 16.9872 62.9814 18.5699 63.5043 20.3762L67.3466 19.264ZM53.7386 39.28L57.3163 41.0689L61.5643 32.5729L57.9866 30.784L54.4089 28.9951L50.1609 37.4911L53.7386 39.28ZM57.9866 30.784V34.784H74.8346V30.784V26.784H57.9866V30.784ZM74.8346 30.784L70.8908 31.4524L72.3308 39.9484L76.2746 39.28L80.2183 38.6116L78.7783 30.1156L74.8346 30.784ZM76.2746 39.28V35.28H53.7386V39.28V43.28H76.2746V39.28ZM92.9167 18.688V14.688H88.9167V18.688H92.9167ZM103.861 18.688H107.861V14.688H103.861V18.688ZM103.861 48.568L104.309 52.5428L107.861 52.1426V48.568H103.861ZM98.7487 49.144V53.144H98.9733L99.1966 53.1188L98.7487 49.144ZM94.5007 47.56L91.6723 50.3884L94.5007 47.56ZM98.7487 49.144H94.7487V53.144H98.7487V49.144ZM98.7487 40.216V36.216H94.7487V40.216H98.7487ZM121.357 40.216L124.634 37.9222L123.439 36.216H121.357V40.216ZM122.221 42.088L118.403 43.2811L118.414 43.3171L118.426 43.3529L122.221 42.088ZM121.573 47.992L124.583 50.626L124.583 50.626L121.573 47.992ZM103.861 32.368V36.368H107.861V32.368H103.861ZM92.9167 32.368H88.9167V36.368H92.9167V32.368ZM92.9167 5.224L92.1322 1.30167L88.9167 1.94477V5.224H92.9167ZM95.0767 4.864L94.511 0.9042L94.4972 0.906178L94.4833 0.908253L95.0767 4.864ZM102.493 5.728L100.014 8.86753L100.014 8.86753L102.493 5.728ZM92.9167 18.688V22.688H103.861V18.688V14.688H92.9167V18.688ZM103.861 18.688H99.8607V48.568H103.861H107.861V18.688H103.861ZM103.861 48.568L103.413 44.5932L98.3008 45.1692L98.7487 49.144L99.1966 53.1188L104.309 52.5428L103.861 48.568ZM98.7487 49.144V45.144C97.8181 45.144 97.4952 44.8977 97.3291 44.7316L94.5007 47.56L91.6723 50.3884C93.6181 52.3343 96.1273 53.144 98.7487 53.144V49.144ZM94.5007 47.56L97.3291 44.7316C97.163 44.5655 96.9167 44.2426 96.9167 43.312H92.9167H88.9167C88.9167 45.9334 89.7264 48.4425 91.6723 50.3884L94.5007 47.56ZM92.9167 43.312H96.9167V18.688H92.9167H88.9167V43.312H92.9167ZM98.7487 49.144H102.749V40.216H98.7487H94.7487V49.144H98.7487ZM98.7487 40.216V44.216H121.357V40.216V36.216H98.7487V40.216ZM121.357 40.216L118.08 42.5098C118.11 42.5535 118.243 42.7701 118.403 43.2811L122.221 42.088L126.039 40.8949C125.718 39.8699 125.275 38.8385 124.634 37.9222L121.357 40.216ZM122.221 42.088L118.426 43.3529C118.506 43.5924 118.581 43.9699 118.581 44.536H122.581H126.581C126.581 43.2781 126.416 42.0236 126.015 40.8231L122.221 42.088ZM122.581 44.536H118.581C118.581 45.0253 118.526 45.305 118.489 45.432C118.455 45.5464 118.453 45.4827 118.562 45.358L121.573 47.992L124.583 50.626C126.148 48.8375 126.581 46.5671 126.581 44.536H122.581ZM121.573 47.992L118.562 45.358C118.59 45.326 118.633 45.285 118.69 45.2443C118.747 45.2036 118.802 45.1743 118.848 45.1553C118.943 45.1165 118.939 45.144 118.765 45.144V49.144V53.144C120.895 53.144 123.016 52.4171 124.583 50.626L121.573 47.992ZM118.765 49.144V45.144H98.7487V49.144V53.144H118.765V49.144ZM103.861 32.368V28.368H92.9167V32.368V36.368H103.861V32.368ZM92.9167 32.368H96.9167V5.224H92.9167H88.9167V32.368H92.9167ZM92.9167 5.224L93.7011 9.14632C94.0828 9.06999 94.7249 8.96152 95.6701 8.81974L95.0767 4.864L94.4833 0.908253C93.5085 1.05448 92.7106 1.18601 92.1322 1.30167L92.9167 5.224ZM95.0767 4.864L95.6424 8.82379C96.4843 8.70352 97.2543 8.648 97.9567 8.648V4.648V0.647996C96.8351 0.647996 95.6851 0.73647 94.511 0.9042L95.0767 4.864ZM97.9567 4.648V8.648C98.8039 8.648 99.3819 8.72201 99.7482 8.80922C100.12 8.89772 100.141 8.96803 100.014 8.86753L102.493 5.728L104.971 2.58847C102.973 1.01124 100.32 0.647996 97.9567 0.647996V4.648ZM102.493 5.728L100.014 8.86753C99.7252 8.63948 99.683 8.43598 99.724 8.55891C99.7738 8.70847 99.8607 9.09636 99.8607 9.832H103.861H107.861C107.861 7.45959 107.364 4.47782 104.971 2.58847L102.493 5.728ZM103.861 9.832H99.8607V32.368H103.861H107.861V9.832H103.861ZM147.891 14.44L151.711 13.2544L150.838 10.44H147.891V14.44ZM147.459 14.44V10.44H144.518L143.641 13.2469L147.459 14.44ZM145.731 19.552L141.966 18.2005L141.951 18.2436L141.936 18.2871L145.731 19.552ZM143.787 25.456L147.582 26.7209L147.586 26.7076L147.59 26.6943L143.787 25.456ZM141.843 31.504L138.022 30.3213L137.961 30.5178L137.921 30.7195L141.843 31.504ZM140.547 37.984L144.361 39.1885L144.427 38.9814L144.469 38.7685L140.547 37.984ZM139.683 40.864L135.837 39.7651L135.812 39.8508L135.792 39.9375L139.683 40.864ZM138.099 46.552L134.245 45.4814L134.245 45.4814L138.099 46.552ZM137.379 49L138.431 52.8591L140.544 52.283L141.197 50.1931L137.379 49ZM135.579 49.432L134.741 45.5208L134.609 45.549L134.48 45.5859L135.579 49.432ZM128.595 48.64L126.342 51.9449L126.342 51.9449L128.595 48.64ZM127.227 43.672L123.404 42.4957L123.362 42.6328L123.329 42.7726L127.227 43.672ZM127.875 41.512L131.712 42.6407L131.724 42.6027L131.734 42.5645L127.875 41.512ZM129.675 35.536L125.888 34.2484L125.876 34.2825L125.865 34.3169L129.675 35.536ZM132.267 27.76L128.479 26.4758L128.472 26.4953L128.466 26.5148L132.267 27.76ZM135.147 19.408L131.394 18.0252L131.383 18.0543L131.373 18.0836L135.147 19.408ZM137.883 11.848L134.138 10.4435L134.125 10.4779L134.112 10.5126L137.883 11.848ZM139.971 6.448L137.808 3.08329L136.744 3.76733L136.267 4.93881L139.971 6.448ZM143.139 5.296L144.048 9.19136L144.093 9.18076L144.138 9.16911L143.139 5.296ZM153.075 5.656L151.646 9.39221L151.695 9.41071L151.744 9.42796L153.075 5.656ZM156.171 8.464L152.376 9.72891L152.39 9.77154L152.406 9.81385L156.171 8.464ZM159.123 17.32L155.307 18.5193L155.317 18.5522L155.328 18.5849L159.123 17.32ZM165.603 38.416L161.763 39.536L161.772 39.568L161.782 39.5999L165.603 38.416ZM168.339 47.632L171.288 50.3349L172.792 48.6941L172.19 46.551L168.339 47.632ZM166.035 49.072L164.611 45.334L164.534 45.3632L164.459 45.3954L166.035 49.072ZM156.387 45.4L152.541 46.4989L152.548 46.5242L152.556 46.5494L156.387 45.4ZM154.083 37.336L150.161 38.1205L150.192 38.2792L150.237 38.4349L154.083 37.336ZM152.859 31.216L156.781 30.4315L156.756 30.3075L156.724 30.1853L152.859 31.216ZM151.059 24.952L154.88 23.7693L154.88 23.7693L151.059 24.952ZM149.331 19.264L145.489 20.3762L145.493 20.3901L145.497 20.4039L149.331 19.264ZM135.723 39.28L132.145 37.4911L129.251 43.28H135.723V39.28ZM139.971 30.784V26.784H137.499L136.393 28.9951L139.971 30.784ZM156.819 30.784L160.763 30.1156L160.198 26.784H156.819V30.784ZM158.259 39.28V43.28H162.994L162.203 38.6116L158.259 39.28ZM147.891 14.44V10.44H147.459V14.44V18.44H147.891V14.44ZM147.459 14.44L143.641 13.2469C143.181 14.7191 142.624 16.3693 141.966 18.2005L145.731 19.552L149.496 20.9035C150.182 18.9907 150.777 17.2329 151.277 15.6331L147.459 14.44ZM145.731 19.552L141.936 18.2871C141.309 20.1688 140.658 22.1457 139.983 24.2177L143.787 25.456L147.59 26.6943C148.26 24.6383 148.905 22.6792 149.526 20.8169L145.731 19.552ZM143.787 25.456L139.992 24.1911C139.311 26.2342 138.654 28.2776 138.022 30.3213L141.843 31.504L145.664 32.6867C146.28 30.6984 146.919 28.7098 147.582 26.7209L143.787 25.456ZM141.843 31.504L137.921 30.7195L136.625 37.1995L140.547 37.984L144.469 38.7685L145.765 32.2885L141.843 31.504ZM140.547 37.984L136.733 36.7795C136.433 37.7297 136.134 38.7251 135.837 39.7651L139.683 40.864L143.529 41.9629C143.808 40.9869 144.085 40.0623 144.361 39.1885L140.547 37.984ZM139.683 40.864L135.792 39.9375C135.569 40.8732 135.325 41.7828 135.06 42.6666L138.891 43.816L142.722 44.9654C143.033 43.9292 143.317 42.8708 143.574 41.7905L139.683 40.864ZM138.891 43.816L135.06 42.6666C134.765 43.6498 134.493 44.5882 134.245 45.4814L138.099 46.552L141.953 47.6226C142.185 46.7878 142.441 45.9022 142.722 44.9654L138.891 43.816ZM138.099 46.552L134.245 45.4814C134.015 46.309 133.787 47.0838 133.561 47.8069L137.379 49L141.197 50.1931C141.451 49.3802 141.703 48.523 141.953 47.6226L138.099 46.552ZM137.379 49L136.326 45.1409C135.885 45.2615 135.358 45.3885 134.741 45.5208L135.579 49.432L136.417 53.3432C137.144 53.1875 137.817 53.0265 138.431 52.8591L137.379 49ZM135.579 49.432L134.48 45.5859C134.255 45.6502 133.85 45.72 133.203 45.72V49.72V53.72C134.38 53.72 135.559 53.5978 136.678 53.2781L135.579 49.432ZM133.203 49.72V45.72C131.563 45.72 130.958 45.4097 130.848 45.3351L128.595 48.64L126.342 51.9449C128.344 53.3103 130.811 53.72 133.203 53.72V49.72ZM128.595 48.64L130.848 45.3351C130.834 45.3251 130.853 45.3361 130.887 45.3745C130.922 45.4142 130.957 45.4646 130.985 45.5191C130.997 45.5448 131.006 45.5669 131.012 45.5837C131.018 45.6004 131.02 45.6097 131.02 45.6096C131.02 45.6096 131.011 45.5675 131.011 45.472H127.011H123.011C123.011 48.0478 124.083 50.4048 126.342 51.9449L128.595 48.64ZM127.011 45.472H131.011C131.011 45.2302 131.041 44.9328 131.125 44.5714L127.227 43.672L123.329 42.7726C123.125 43.6592 123.011 44.5618 123.011 45.472H127.011ZM127.227 43.672L131.05 44.8483C131.248 44.2046 131.469 43.4681 131.712 42.6407L127.875 41.512L124.037 40.3833C123.801 41.1879 123.59 41.8914 123.404 42.4957L127.227 43.672ZM127.875 41.512L131.734 42.5645C132.145 41.0575 132.726 39.1257 133.485 36.7551L129.675 35.536L125.865 34.3169C125.088 36.7463 124.469 38.7985 124.016 40.4595L127.875 41.512ZM129.675 35.536L133.462 36.8236C134.283 34.4075 135.152 31.8013 136.068 29.0052L132.267 27.76L128.466 26.5148C127.558 29.2867 126.698 31.8645 125.888 34.2484L129.675 35.536ZM132.267 27.76L136.055 29.0442C137.011 26.2252 137.966 23.4546 138.921 20.7323L135.147 19.408L131.373 18.0836C130.408 20.8334 129.443 23.6308 128.479 26.4758L132.267 27.76ZM135.147 19.408L138.9 20.7908C139.913 18.0419 140.831 15.5059 141.653 13.1834L137.883 11.848L134.112 10.5126C133.303 12.7981 132.397 15.3021 131.394 18.0252L135.147 19.408ZM137.883 11.848L141.628 13.2525C142.487 10.9616 143.168 9.20202 143.675 7.95719L139.971 6.448L136.267 4.93881C135.718 6.28598 135.007 8.12637 134.138 10.4435L137.883 11.848ZM139.971 6.448L142.134 9.81271C142.131 9.81465 142.167 9.79173 142.255 9.74999C142.342 9.70879 142.466 9.65616 142.634 9.59517C142.974 9.47154 143.438 9.33372 144.048 9.19136L143.139 5.296L142.23 1.40063C140.657 1.76777 139.064 2.2758 137.808 3.08329L139.971 6.448ZM143.139 5.296L144.138 9.16911C145.322 8.86373 146.45 8.72 147.531 8.72V4.72V0.719999C145.732 0.719999 143.932 0.960266 142.139 1.42289L143.139 5.296ZM147.531 4.72V8.72C149.193 8.72 150.545 8.97108 151.646 9.39221L153.075 5.656L154.503 1.91979C152.341 1.09291 149.997 0.719999 147.531 0.719999V4.72ZM153.075 5.656L151.744 9.42796C152.176 9.58053 152.346 9.71716 152.386 9.75287C152.404 9.76939 152.4 9.76965 152.39 9.75334C152.379 9.73665 152.375 9.72491 152.376 9.72891L156.171 8.464L159.966 7.19909C159.042 4.42736 156.861 2.7506 154.406 1.88404L153.075 5.656ZM156.171 8.464L152.406 9.81385C153.295 12.2957 154.262 15.1956 155.307 18.5193L159.123 17.32L162.939 16.1207C161.871 12.7244 160.871 9.72025 159.936 7.11415L156.171 8.464ZM159.123 17.32L155.328 18.5849C156.419 21.8586 157.512 25.303 158.606 28.9186L162.435 27.76L166.263 26.6014C165.15 22.921 164.034 19.4054 162.918 16.0551L159.123 17.32ZM162.435 27.76L158.606 28.9186C159.707 32.5545 160.759 36.0936 161.763 39.536L165.603 38.416L169.443 37.296C168.431 33.8264 167.371 30.2615 166.263 26.6014L162.435 27.76ZM165.603 38.416L161.782 39.5999C162.83 42.9819 163.732 46.0188 164.488 48.713L168.339 47.632L172.19 46.551C171.41 43.7732 170.488 40.6661 169.424 37.2321L165.603 38.416ZM168.339 47.632L165.39 44.9291C165.412 44.9056 165.246 45.092 164.611 45.334L166.035 49.072L167.459 52.81C168.84 52.284 170.21 51.5104 171.288 50.3349L168.339 47.632ZM166.035 49.072L164.459 45.3954C164.064 45.5649 163.426 45.72 162.435 45.72V49.72V53.72C164.228 53.72 165.99 53.4431 167.611 52.7486L166.035 49.072ZM162.435 49.72V45.72C161.674 45.72 161.19 45.6482 160.916 45.5774C160.642 45.5064 160.715 45.4724 160.905 45.6406L158.259 48.64L155.612 51.6394C157.555 53.3538 160.198 53.72 162.435 53.72V49.72ZM158.259 48.64L160.905 45.6406C160.824 45.5689 160.514 45.2377 160.218 44.2506L156.387 45.4L152.556 46.5494C153.124 48.4423 154.062 50.2711 155.612 51.6394L158.259 48.64ZM156.387 45.4L160.233 44.3011L157.929 36.2371L154.083 37.336L150.237 38.4349L152.541 46.4989L156.387 45.4ZM154.083 37.336L158.005 36.5515L156.781 30.4315L152.859 31.216L148.937 32.0005L150.161 38.1205L154.083 37.336ZM152.859 31.216L156.724 30.1853C156.135 27.9773 155.521 25.8385 154.88 23.7693L151.059 24.952L147.238 26.1347C147.845 28.0975 148.431 30.1346 148.994 32.2466L152.859 31.216ZM151.059 24.952L154.88 23.7693C154.26 21.7656 153.688 19.884 153.165 18.1241L149.331 19.264L145.497 20.4039C146.03 22.196 146.61 24.1064 147.238 26.1347L151.059 24.952ZM149.331 19.264L153.173 18.1518C152.64 16.3101 152.153 14.6768 151.711 13.2544L147.891 14.44L144.071 15.6256C144.493 16.9872 144.966 18.5699 145.489 20.3762L149.331 19.264ZM135.723 39.28L139.301 41.0689L143.549 32.5729L139.971 30.784L136.393 28.9951L132.145 37.4911L135.723 39.28ZM139.971 30.784V34.784H156.819V30.784V26.784H139.971V30.784ZM156.819 30.784L152.875 31.4524L154.315 39.9484L158.259 39.28L162.203 38.6116L160.763 30.1156L156.819 30.784ZM158.259 39.28V35.28H135.723V39.28V43.28H158.259V39.28ZM181.733 14.152L177.733 14.1848L177.766 18.152H181.733V14.152ZM181.661 5.368V1.368H177.628L177.661 5.40079L181.661 5.368ZM203.909 5.368L207.237 3.1492L206.05 1.368H203.909V5.368ZM204.701 7.168L208.519 5.9749L208.519 5.9749L204.701 7.168ZM203.981 13.072L201.063 10.3362L201.057 10.3427L203.981 13.072ZM191.885 5.368L195.885 5.33521L195.853 1.368H191.885V5.368ZM191.957 14.152V18.152H195.99L195.957 14.1192L191.957 14.152ZM169.709 14.152L166.552 16.6078L167.753 18.152H169.709V14.152ZM168.845 12.352L164.965 13.3221L164.993 13.4345L165.027 13.5451L168.845 12.352ZM169.565 6.448L166.737 3.61957L166.688 3.66832L166.641 3.71872L169.565 6.448ZM181.157 12.208V8.208H177.157V12.208H181.157ZM192.173 12.208H196.173V8.208H192.173V12.208ZM192.173 48.928L193.323 52.7593L196.173 51.9041V48.928H192.173ZM190.013 49.288L189.615 45.3079L189.517 45.3176L189.42 45.3323L190.013 49.288ZM182.453 48.352L179.796 51.3416L179.836 51.3772L179.877 51.4116L182.453 48.352ZM181.733 14.152L185.733 14.1192L185.661 5.33521L181.661 5.368L177.661 5.40079L177.733 14.1848L181.733 14.152ZM181.661 5.368V9.368H203.909V5.368V1.368H181.661V5.368ZM203.909 5.368L200.581 7.5868C200.568 7.56786 200.6 7.61251 200.662 7.75295C200.722 7.89022 200.798 8.08862 200.883 8.3611L204.701 7.168L208.519 5.9749C208.221 5.01965 207.819 4.02177 207.237 3.1492L203.909 5.368ZM204.701 7.168L200.883 8.36109C200.994 8.71543 201.061 9.1268 201.061 9.616H205.061H209.061C209.061 8.3772 208.888 7.15657 208.519 5.9749L204.701 7.168ZM205.061 9.616H201.061C201.061 10.0841 201.005 10.3377 200.973 10.4389C200.947 10.5238 200.954 10.4523 201.063 10.3362L203.981 13.072L206.899 15.8078C208.576 14.019 209.061 11.7066 209.061 9.616H205.061ZM203.981 13.072L201.057 10.3427C201.093 10.3036 201.141 10.2618 201.197 10.2239C201.254 10.1862 201.304 10.1623 201.339 10.1486C201.41 10.1215 201.376 10.152 201.173 10.152V14.152V18.152C203.221 18.152 205.316 17.5046 206.905 15.8013L203.981 13.072ZM201.173 14.152V10.152H181.733V14.152V18.152H201.173V14.152ZM191.885 5.368L187.885 5.40079L187.957 14.1848L191.957 14.152L195.957 14.1192L195.885 5.33521L191.885 5.368ZM191.957 14.152V10.152H169.709V14.152V18.152H191.957V14.152ZM169.709 14.152L172.867 11.6962C172.906 11.7473 172.893 11.7432 172.847 11.6471C172.802 11.5525 172.737 11.3954 172.663 11.1589L168.845 12.352L165.027 13.5451C165.349 14.575 165.818 15.6645 166.552 16.6078L169.709 14.152ZM168.845 12.352L172.726 11.3819C172.62 10.9586 172.557 10.4705 172.557 9.904H168.557H164.557C164.557 11.0655 164.686 12.2094 164.965 13.3221L168.845 12.352ZM168.557 9.904H172.557C172.557 9.37757 172.615 9.08927 172.649 8.972C172.68 8.86735 172.664 8.99062 172.489 9.17727L169.565 6.448L166.641 3.71872C164.961 5.51841 164.557 7.89268 164.557 9.904H168.557ZM169.565 6.448L172.394 9.27643C172.384 9.28634 172.363 9.30519 172.331 9.32594C172.299 9.34679 172.268 9.3619 172.243 9.37138C172.219 9.38061 172.212 9.3803 172.229 9.37734C172.247 9.37423 172.293 9.368 172.373 9.368V5.368V1.368C170.312 1.368 168.308 2.04845 166.737 3.61957L169.565 6.448ZM172.373 5.368V9.368H191.885V5.368V1.368H172.373V5.368ZM181.157 12.208V16.208H192.173V12.208V8.208H181.157V12.208ZM192.173 12.208H188.173V48.928H192.173H196.173V12.208H192.173ZM192.173 48.928L191.024 45.0967C190.92 45.1277 190.508 45.2185 189.615 45.3079L190.013 49.288L190.411 53.2681C191.438 53.1655 192.466 53.0163 193.323 52.7593L192.173 48.928ZM190.013 49.288L189.42 45.3323C188.664 45.4457 187.878 45.504 187.061 45.504V49.504V53.504C188.26 53.504 189.443 53.4183 190.607 53.2437L190.013 49.288ZM187.061 49.504V45.504C186.198 45.504 185.619 45.4253 185.259 45.3354C184.897 45.2449 184.893 45.1771 185.03 45.2924L182.453 48.352L179.877 51.4116C181.899 53.115 184.639 53.504 187.061 53.504V49.504ZM182.453 48.352L185.111 45.3624C185.32 45.5483 185.335 45.6854 185.289 45.544C185.237 45.381 185.157 45.0034 185.157 44.32H181.157H177.157C177.157 46.6542 177.653 49.4373 179.796 51.3416L182.453 48.352ZM181.157 44.32H185.157V12.208H181.157H177.157V44.32H181.157ZM211.675 18.472V14.472H207.675V18.472H211.675ZM222.331 18.472H226.331V14.472H222.331V18.472ZM222.331 48.568L223.198 52.4727L226.331 51.7767V48.568H222.331ZM220.315 48.928L219.691 44.9769L219.674 44.9796L219.657 44.9824L220.315 48.928ZM213.259 47.56L210.43 50.3884L213.259 47.56ZM222.331 35.896V39.896H226.331V35.896H222.331ZM211.675 35.896H207.675V39.896H211.675V35.896ZM213.259 6.952L216.02 9.84542L216.054 9.81331L216.087 9.78043L213.259 6.952ZM220.315 5.584L219.657 9.52957L219.674 9.53238L219.691 9.53505L220.315 5.584ZM222.331 5.944H226.331V2.7353L223.198 2.03925L222.331 5.944ZM217.507 31.072H213.507V35.072H217.507V31.072ZM217.507 22.432V18.432H213.507V22.432H217.507ZM239.251 22.432L242.68 20.374L241.515 18.432H239.251V22.432ZM240.043 24.232L243.837 22.9671L243.837 22.9671L240.043 24.232ZM239.323 29.992L236.494 27.1636L236.445 27.2123L236.398 27.2627L239.323 29.992ZM217.507 49.144H213.507V53.144H217.507V49.144ZM217.507 40.432V36.432H213.507V40.432H217.507ZM241.627 40.432L244.955 38.2132L243.767 36.432H241.627V40.432ZM241.699 48.064L238.87 45.2356L238.821 45.2843L238.774 45.3347L241.699 48.064ZM217.507 14.008H213.507V18.008H217.507V14.008ZM217.507 5.368V1.368H213.507V5.368H217.507ZM241.267 5.368L244.424 2.91224L243.223 1.368H241.267V5.368ZM242.059 7.096L238.194 8.12665L238.225 8.24485L238.264 8.36091L242.059 7.096ZM241.411 12.928L244.335 15.6573L244.379 15.6103L244.421 15.562L241.411 12.928ZM211.675 18.472V22.472H222.331V18.472V14.472H211.675V18.472ZM222.331 18.472H218.331V48.568H222.331H226.331V18.472H222.331ZM222.331 48.568L221.463 44.6633C221.158 44.7309 220.589 44.8352 219.691 44.9769L220.315 48.928L220.938 52.8791C221.864 52.7328 222.639 52.5971 223.198 52.4727L222.331 48.568ZM220.315 48.928L219.657 44.9824C219.04 45.0853 218.326 45.144 217.507 45.144V49.144V53.144C218.703 53.144 219.861 53.0587 220.972 52.8736L220.315 48.928ZM217.507 49.144V45.144C216.576 45.144 216.253 44.8977 216.087 44.7316L213.259 47.56L210.43 50.3884C212.376 52.3343 214.885 53.144 217.507 53.144V49.144ZM213.259 47.56L216.087 44.7316C215.921 44.5655 215.675 44.2426 215.675 43.312H211.675H207.675C207.675 45.9334 208.484 48.4425 210.43 50.3884L213.259 47.56ZM211.675 43.312H215.675V18.472H211.675H207.675V43.312H211.675ZM222.331 35.896V31.896H211.675V35.896V39.896H222.331V35.896ZM211.675 35.896H215.675V11.2H211.675H207.675V35.896H211.675ZM211.675 11.2H215.675C215.675 10.179 215.943 9.91932 216.02 9.84542L213.259 6.952L210.497 4.05858C208.462 6.00068 207.675 8.57304 207.675 11.2H211.675ZM213.259 6.952L216.087 9.78043C216.253 9.61431 216.576 9.368 217.507 9.368V5.368V1.368C214.885 1.368 212.376 2.17768 210.43 4.12357L213.259 6.952ZM217.507 5.368V9.368C218.326 9.368 219.04 9.42672 219.657 9.52957L220.315 5.584L220.972 1.63842C219.861 1.45328 218.703 1.368 217.507 1.368V5.368ZM220.315 5.584L219.691 9.53505C220.589 9.67683 221.158 9.78112 221.463 9.84875L222.331 5.944L223.198 2.03925C222.639 1.91487 221.864 1.77916 220.938 1.63295L220.315 5.584ZM222.331 5.944H218.331V35.896H222.331H226.331V5.944H222.331ZM217.507 31.072H221.507V22.432H217.507H213.507V31.072H217.507ZM217.507 22.432V26.432H239.251V22.432V18.432H217.507V22.432ZM239.251 22.432L235.821 24.49C235.916 24.6492 236.07 24.963 236.248 25.4969L240.043 24.232L243.837 22.9671C243.535 22.061 243.161 21.1748 242.68 20.374L239.251 22.432ZM240.043 24.232L236.248 25.4969C236.334 25.7569 236.403 26.1153 236.403 26.608H240.403H244.403C244.403 25.3727 244.231 24.1471 243.837 22.9671L240.043 24.232ZM240.403 26.608H236.403C236.403 27.079 236.345 27.3159 236.322 27.3898C236.304 27.4449 236.334 27.3232 236.494 27.1636L239.323 29.992L242.151 32.8204C243.928 31.0433 244.403 28.673 244.403 26.608H240.403ZM239.323 29.992L236.398 27.2627C236.426 27.2326 236.467 27.1956 236.52 27.1596C236.573 27.1235 236.624 27.0979 236.666 27.0814C236.752 27.0475 236.746 27.072 236.587 27.072V31.072V35.072C238.642 35.072 240.689 34.3906 242.247 32.7213L239.323 29.992ZM236.587 31.072V27.072H217.507V31.072V35.072H236.587V31.072ZM217.507 49.144H221.507V40.432H217.507H213.507V49.144H217.507ZM217.507 40.432V44.432H241.627V40.432V36.432H217.507V40.432ZM241.627 40.432L238.298 42.6508C238.286 42.6319 238.317 42.6765 238.379 42.817C238.44 42.9542 238.515 43.1526 238.601 43.4251L242.419 42.232L246.236 41.0389C245.938 40.0837 245.536 39.0858 244.955 38.2132L241.627 40.432ZM242.419 42.232L238.601 43.4251C238.711 43.7794 238.779 44.1908 238.779 44.68H242.779H246.779C246.779 43.4412 246.606 42.2206 246.236 41.0389L242.419 42.232ZM242.779 44.68H238.779C238.779 45.151 238.721 45.3879 238.698 45.4618C238.68 45.5169 238.71 45.3952 238.87 45.2356L241.699 48.064L244.527 50.8924C246.304 49.1153 246.779 46.745 246.779 44.68H242.779ZM241.699 48.064L238.774 45.3347C238.802 45.3046 238.843 45.2676 238.896 45.2316C238.949 45.1955 239 45.1699 239.042 45.1534C239.128 45.1195 239.122 45.144 238.963 45.144V49.144V53.144C241.018 53.144 243.065 52.4626 244.623 50.7933L241.699 48.064ZM238.963 49.144V45.144H217.507V49.144V53.144H238.963V49.144ZM217.507 14.008H221.507V5.368H217.507H213.507V14.008H217.507ZM217.507 5.368V9.368H241.267V5.368V1.368H217.507V5.368ZM241.267 5.368L238.109 7.82376C238.061 7.7614 238.057 7.7403 238.08 7.79062C238.104 7.84144 238.146 7.94781 238.194 8.12665L242.059 7.096L245.923 6.06535C245.64 5.00352 245.185 3.8903 244.424 2.91224L241.267 5.368ZM242.059 7.096L238.264 8.36091C238.35 8.62095 238.419 8.97934 238.419 9.472H242.419H246.419C246.419 8.23666 246.247 7.01105 245.853 5.83109L242.059 7.096ZM242.419 9.472H238.419C238.419 9.96128 238.364 10.241 238.327 10.368C238.293 10.4824 238.291 10.4187 238.4 10.294L241.411 12.928L244.421 15.562C245.986 13.7735 246.419 11.5031 246.419 9.472H242.419ZM241.411 12.928L238.486 10.1987C238.523 10.1596 238.57 10.1178 238.627 10.0799C238.683 10.0422 238.733 10.0183 238.769 10.0046C238.839 9.97747 238.806 10.008 238.603 10.008V14.008V18.008C240.65 18.008 242.745 17.3606 244.335 15.6573L241.411 12.928ZM238.603 14.008V10.008H217.507V14.008V18.008H238.603V14.008ZM269.626 39.928L272.173 43.0118L272.18 43.0064L272.186 43.0009L269.626 39.928ZM269.986 33.664L267.328 36.6536L267.415 36.7312L267.507 36.8035L269.986 33.664ZM266.098 31.72L264.876 35.5289L264.902 35.5373L264.929 35.5454L266.098 31.72ZM262.282 30.496L261.017 34.2907L261.038 34.2979L261.06 34.3049L262.282 30.496ZM255.37 27.616L253.478 31.1406L253.496 31.1501L253.513 31.1593L255.37 27.616ZM250.762 23.512L247.375 25.6407L247.396 25.6749L247.419 25.7087L250.762 23.512ZM253.714 7.6L251.258 4.44259L251.258 4.44259L253.714 7.6ZM273.586 4.864L272.615 8.74457L272.626 8.74711L272.636 8.74959L273.586 4.864ZM278.626 7.24L275.983 10.2429L276.046 10.2987L276.112 10.3518L278.626 7.24ZM279.706 13.864L276.347 11.691L276.33 11.7174L276.314 11.744L279.706 13.864ZM277.834 15.88L275.549 19.1636L277.922 20.8139L280.234 19.08L277.834 15.88ZM273.442 13.936L272.237 17.7503L272.283 17.7648L272.329 17.7783L273.442 13.936ZM262.21 14.224L264.329 17.616L264.379 17.5848L264.428 17.5522L262.21 14.224ZM261.634 19.48L259.111 22.5845L259.171 22.6334L259.234 22.68L261.634 19.48ZM265.09 21.064L263.896 24.8819L263.908 24.8856L265.09 21.064ZM269.05 22.288L267.868 26.1096L267.873 26.1111L269.05 22.288ZM279.13 27.688L276.361 30.5747L276.376 30.5896L276.392 30.6043L279.13 27.688ZM277.978 46.48L280.476 49.6035L280.491 49.5918L280.505 49.5801L277.978 46.48ZM256.594 49.288L255.548 53.1489L255.548 53.1489L256.594 49.288ZM251.05 46.552L248.385 49.5358L248.411 49.5589L248.438 49.5816L251.05 46.552ZM250.114 39.208L247.054 36.6315L247.047 36.6393L247.041 36.6473L250.114 39.208ZM252.634 37.192L255.16 34.0911L253.203 32.4962L250.921 33.577L252.634 37.192ZM257.458 40.072L255.816 43.7197L255.87 43.7441L255.925 43.767L257.458 40.072ZM264.082 41.296V45.296C266.935 45.296 269.966 44.8348 272.173 43.0118L269.626 39.928L267.078 36.8442C267.115 36.8133 266.977 36.9411 266.453 37.0705C265.932 37.199 265.162 37.296 264.082 37.296V41.296ZM269.626 39.928L272.186 43.0009C274.09 41.4141 275.354 39.2206 275.354 36.544H271.354H267.354C267.354 36.5691 267.351 36.5717 267.354 36.5598C267.357 36.5474 267.361 36.5401 267.359 36.5429C267.358 36.5455 267.301 36.6584 267.065 36.8551L269.626 39.928ZM271.354 36.544H275.354C275.354 34.1664 274.373 32.0315 272.464 30.5245L269.986 33.664L267.507 36.8035C267.522 36.8154 267.509 36.8072 267.482 36.7747C267.455 36.7411 267.424 36.6951 267.398 36.6402C267.372 36.5856 267.36 36.5408 267.354 36.5152C267.349 36.4912 267.354 36.4978 267.354 36.544H271.354ZM269.986 33.664L272.643 30.6744C271.175 29.3692 269.267 28.506 267.266 27.8946L266.098 31.72L264.929 35.5454C266.384 35.99 267.068 36.4228 267.328 36.6536L269.986 33.664ZM266.098 31.72L267.319 27.9111L263.503 26.6871L262.282 30.496L261.06 34.3049L264.876 35.5289L266.098 31.72ZM262.282 30.496L263.546 26.7013C261.119 25.8921 259.018 25.0118 257.226 24.0727L255.37 27.616L253.513 31.1593C255.753 32.3322 258.26 33.3719 261.017 34.2907L262.282 30.496ZM255.37 27.616L257.261 24.0914C255.813 23.3146 254.803 22.379 254.104 21.3153L250.762 23.512L247.419 25.7087C248.928 28.005 250.99 29.8054 253.478 31.1406L255.37 27.616ZM250.762 23.512L254.148 21.3833C253.598 20.5087 253.178 19.1692 253.178 17.104H249.178H245.178C245.178 20.2228 245.813 23.1553 247.375 25.6407L250.762 23.512ZM249.178 17.104H253.178C253.178 14.297 254.164 12.317 256.169 10.7574L253.714 7.6L251.258 4.44259C247.215 7.58697 245.178 11.943 245.178 17.104H249.178ZM253.714 7.6L256.169 10.7574C258.257 9.13381 261.476 8.072 266.314 8.072V4.072V0.0719991C260.399 0.0719991 255.218 1.36218 251.258 4.44259L253.714 7.6ZM266.314 4.072V8.072C268.802 8.072 270.89 8.3131 272.615 8.74457L273.586 4.864L274.556 0.983427C272.057 0.358893 269.297 0.0719991 266.314 0.0719991V4.072ZM273.586 4.864L272.636 8.74959C274.4 9.18093 275.42 9.74719 275.983 10.2429L278.626 7.24L281.268 4.23714C279.431 2.6208 277.091 1.60307 274.535 0.978401L273.586 4.864ZM278.626 7.24L276.112 10.3518C276.357 10.5497 276.431 10.6802 276.452 10.7209C276.468 10.7528 276.498 10.8187 276.498 10.984H280.498H284.498C284.498 8.18328 283.243 5.82769 281.139 4.12823L278.626 7.24ZM280.498 10.984H276.498C276.498 11.4247 276.401 11.6073 276.347 11.691L279.706 13.864L283.064 16.037C284.066 14.4887 284.498 12.7513 284.498 10.984H280.498ZM279.706 13.864L276.314 11.744C276.11 12.0693 275.831 12.3819 275.433 12.68L277.834 15.88L280.234 19.08C281.372 18.2261 282.341 17.1947 283.097 15.984L279.706 13.864ZM277.834 15.88L280.118 12.5964C278.542 11.5003 276.638 10.6971 274.554 10.0937L273.442 13.936L272.329 17.7783C273.893 18.2309 274.917 18.7237 275.549 19.1636L277.834 15.88ZM273.442 13.936L274.646 10.1217C272.378 9.40531 269.948 9.072 267.394 9.072V13.072V17.072C269.255 17.072 270.857 17.3147 272.237 17.7503L273.442 13.936ZM267.394 13.072V9.072C264.771 9.072 262.105 9.48607 259.991 10.8958L262.21 14.224L264.428 17.5522C264.618 17.4259 265.408 17.072 267.394 17.072V13.072ZM262.21 14.224L260.09 10.832C257.951 12.1686 256.482 14.3221 256.482 17.104H260.482H264.482C264.482 17.1265 264.478 17.1897 264.454 17.2796C264.43 17.3713 264.391 17.4621 264.343 17.542C264.244 17.7076 264.176 17.7117 264.329 17.616L262.21 14.224ZM260.482 17.104H256.482C256.482 19.3108 257.442 21.228 259.111 22.5845L261.634 19.48L264.156 16.3755C264.169 16.3864 264.275 16.4805 264.369 16.6729C264.464 16.8688 264.482 17.0352 264.482 17.104H260.482ZM261.634 19.48L259.234 22.68C260.53 23.6523 262.178 24.3451 263.896 24.8819L265.09 21.064L266.283 17.2461C264.929 16.8229 264.273 16.4597 264.033 16.28L261.634 19.48ZM265.09 21.064L263.908 24.8856L267.868 26.1096L269.05 22.288L270.231 18.4664L266.271 17.2424L265.09 21.064ZM269.05 22.288L267.873 26.1111C271.87 27.3409 274.603 28.8889 276.361 30.5747L279.13 27.688L281.898 24.8013C278.952 21.9751 274.965 19.9231 270.226 18.4649L269.05 22.288ZM279.13 27.688L276.392 30.6043C277.807 31.9331 278.658 33.7829 278.658 36.616H282.658H286.658C286.658 31.9611 285.156 27.8589 281.867 24.7717L279.13 27.688ZM282.658 36.616H278.658C278.658 39.4481 277.636 41.5969 275.45 43.3799L277.978 46.48L280.505 49.5801C284.559 46.275 286.658 41.8479 286.658 36.616H282.658ZM277.978 46.48L275.479 43.3565C273.337 45.0698 269.855 46.224 264.441 46.224V50.224V54.224C270.836 54.224 276.378 52.8822 280.476 49.6035L277.978 46.48ZM264.441 50.224V46.224C261.79 46.224 259.536 45.9407 257.639 45.4271L256.594 49.288L255.548 53.1489C258.259 53.8833 261.237 54.224 264.441 54.224V50.224ZM256.594 49.288L257.639 45.4271C255.747 44.9146 254.486 44.233 253.661 43.5224L251.05 46.552L248.438 49.5816C250.397 51.271 252.832 52.4134 255.548 53.1489L256.594 49.288ZM251.05 46.552L253.714 43.5682C253.09 43.0115 253.034 42.6577 253.034 42.376H249.034H245.034C245.034 45.2623 246.321 47.6925 248.385 49.5358L251.05 46.552ZM249.034 42.376H253.034C253.034 41.9543 253.132 41.834 253.186 41.7687L250.114 39.208L247.041 36.6473C245.655 38.31 245.034 40.3017 245.034 42.376H249.034ZM250.114 39.208L253.173 41.7845C253.638 41.2326 254.038 40.9529 254.346 40.807L252.634 37.192L250.921 33.577C249.405 34.2951 248.125 35.3594 247.054 36.6315L250.114 39.208ZM252.634 37.192L250.107 40.2929C251.732 41.6172 253.657 42.7479 255.816 43.7197L257.458 40.072L259.099 36.4243C257.418 35.6681 256.127 34.8788 255.16 34.0911L252.634 37.192ZM257.458 40.072L255.925 43.767C258.446 44.8121 261.185 45.296 264.082 45.296V41.296V37.296C262.082 37.296 260.405 36.9639 258.99 36.377L257.458 40.072ZM298.733 14.152L294.733 14.1848L294.766 18.152H298.733V14.152ZM298.661 5.368V1.368H294.628L294.661 5.40079L298.661 5.368ZM320.909 5.368L324.237 3.1492L323.05 1.368H320.909V5.368ZM321.701 7.168L325.519 5.9749L325.519 5.9749L321.701 7.168ZM320.981 13.072L318.063 10.3362L318.057 10.3427L320.981 13.072ZM308.885 5.368L312.885 5.33521L312.853 1.368H308.885V5.368ZM308.957 14.152V18.152H312.99L312.957 14.1192L308.957 14.152ZM286.709 14.152L283.552 16.6078L284.753 18.152H286.709V14.152ZM285.845 12.352L281.965 13.3221L281.993 13.4345L282.027 13.5451L285.845 12.352ZM286.565 6.448L283.737 3.61957L283.688 3.66832L283.641 3.71872L286.565 6.448ZM298.157 12.208V8.208H294.157V12.208H298.157ZM309.173 12.208H313.173V8.208H309.173V12.208ZM309.173 48.928L310.323 52.7593L313.173 51.9041V48.928H309.173ZM307.013 49.288L306.615 45.3079L306.517 45.3176L306.42 45.3323L307.013 49.288ZM299.453 48.352L296.796 51.3416L296.836 51.3772L296.877 51.4116L299.453 48.352ZM298.733 14.152L302.733 14.1192L302.661 5.33521L298.661 5.368L294.661 5.40079L294.733 14.1848L298.733 14.152ZM298.661 5.368V9.368H320.909V5.368V1.368H298.661V5.368ZM320.909 5.368L317.581 7.5868C317.568 7.56786 317.6 7.61251 317.662 7.75295C317.722 7.89022 317.798 8.08862 317.883 8.3611L321.701 7.168L325.519 5.9749C325.221 5.01965 324.819 4.02177 324.237 3.1492L320.909 5.368ZM321.701 7.168L317.883 8.36109C317.994 8.71543 318.061 9.1268 318.061 9.616H322.061H326.061C326.061 8.3772 325.888 7.15657 325.519 5.9749L321.701 7.168ZM322.061 9.616H318.061C318.061 10.0841 318.005 10.3377 317.973 10.4389C317.947 10.5238 317.954 10.4523 318.063 10.3362L320.981 13.072L323.899 15.8078C325.576 14.019 326.061 11.7066 326.061 9.616H322.061ZM320.981 13.072L318.057 10.3427C318.093 10.3036 318.141 10.2618 318.197 10.2239C318.254 10.1862 318.304 10.1623 318.339 10.1486C318.41 10.1215 318.376 10.152 318.173 10.152V14.152V18.152C320.221 18.152 322.316 17.5046 323.905 15.8013L320.981 13.072ZM318.173 14.152V10.152H298.733V14.152V18.152H318.173V14.152ZM308.885 5.368L304.885 5.40079L304.957 14.1848L308.957 14.152L312.957 14.1192L312.885 5.33521L308.885 5.368ZM308.957 14.152V10.152H286.709V14.152V18.152H308.957V14.152ZM286.709 14.152L289.867 11.6962C289.906 11.7473 289.893 11.7432 289.847 11.6471C289.802 11.5525 289.737 11.3954 289.663 11.1589L285.845 12.352L282.027 13.5451C282.349 14.575 282.818 15.6645 283.552 16.6078L286.709 14.152ZM285.845 12.352L289.726 11.3819C289.62 10.9586 289.557 10.4705 289.557 9.904H285.557H281.557C281.557 11.0655 281.686 12.2094 281.965 13.3221L285.845 12.352ZM285.557 9.904H289.557C289.557 9.37757 289.615 9.08927 289.649 8.972C289.68 8.86735 289.664 8.99062 289.489 9.17727L286.565 6.448L283.641 3.71872C281.961 5.51841 281.557 7.89268 281.557 9.904H285.557ZM286.565 6.448L289.394 9.27643C289.384 9.28634 289.363 9.30519 289.331 9.32594C289.299 9.34679 289.268 9.3619 289.243 9.37138C289.219 9.38061 289.212 9.3803 289.229 9.37734C289.247 9.37423 289.293 9.368 289.373 9.368V5.368V1.368C287.312 1.368 285.308 2.04845 283.737 3.61957L286.565 6.448ZM289.373 5.368V9.368H308.885V5.368V1.368H289.373V5.368ZM298.157 12.208V16.208H309.173V12.208V8.208H298.157V12.208ZM309.173 12.208H305.173V48.928H309.173H313.173V12.208H309.173ZM309.173 48.928L308.024 45.0967C307.92 45.1277 307.508 45.2185 306.615 45.3079L307.013 49.288L307.411 53.2681C308.438 53.1655 309.466 53.0163 310.323 52.7593L309.173 48.928ZM307.013 49.288L306.42 45.3323C305.664 45.4457 304.878 45.504 304.061 45.504V49.504V53.504C305.26 53.504 306.443 53.4183 307.607 53.2437L307.013 49.288ZM304.061 49.504V45.504C303.198 45.504 302.619 45.4253 302.259 45.3354C301.897 45.2449 301.893 45.1771 302.03 45.2924L299.453 48.352L296.877 51.4116C298.899 53.115 301.639 53.504 304.061 53.504V49.504ZM299.453 48.352L302.111 45.3624C302.32 45.5483 302.335 45.6854 302.289 45.544C302.237 45.381 302.157 45.0034 302.157 44.32H298.157H294.157C294.157 46.6542 294.653 49.4373 296.796 51.3416L299.453 48.352ZM298.157 44.32H302.157V12.208H298.157H294.157V44.32H298.157Z" fill="#1E1E2F" mask="url(#path-1-outside-1_43_763)"/>
</svg>
